<svg xmlns="http://www.w3.org/2000/svg" width="500" height="405" viewBox="0 0 720 405" version="1.1"><path d="M 0 202.501 L 0 405.003 360.250 404.751 L 720.500 404.500 720.752 202.250 L 721.005 -0 360.502 -0 L 0 0 0 202.501 M 0.490 203 C 0.490 314.375, 0.607 359.937, 0.750 304.250 C 0.893 248.562, 0.893 157.437, 0.750 101.750 C 0.607 46.062, 0.490 91.625, 0.490 203 M 258 117 C 258 119.222, 258.467 120, 259.800 120 C 262.104 120, 264 118.104, 264 115.800 C 264 114.467, 263.222 114, 261 114 C 258.333 114, 258 114.333, 258 117 M 269.153 120.250 C 269.478 121.935, 265.385 130.519, 264.794 129.391 C 264.538 128.901, 264.503 129.162, 264.717 129.971 C 265.283 132.108, 263.786 203.119, 263.187 202.521 C 262.911 202.244, 262.120 202.485, 261.431 203.057 C 259.942 204.293, 258.539 202.581, 258.515 199.500 C 258.507 198.400, 257.938 197.444, 257.250 197.375 C 256.563 197.306, 255.887 197.159, 255.750 197.048 C 255.613 196.938, 254.727 196.698, 253.782 196.517 C 251.341 196.047, 247.082 191.002, 246.354 187.715 C 246.014 186.184, 245.536 185.131, 245.291 185.376 C 245.046 185.620, 242.107 183.056, 238.760 179.677 C 232.863 173.725, 231.777 171.510, 231.947 165.780 C 232.021 163.278, 231.735 163.071, 228.373 163.197 C 226.005 163.286, 224.293 162.753, 223.510 161.683 C 222.846 160.774, 222.009 160.324, 221.651 160.682 C 221.293 161.040, 220.998 160.696, 220.995 159.917 C 220.992 159.137, 219.835 157.150, 218.423 155.500 C 217.011 153.850, 216.179 153.175, 216.574 154 C 217.168 155.239, 217.052 155.276, 215.905 154.208 C 215.002 153.368, 214.875 152.669, 215.542 152.208 C 216.106 151.819, 216.496 150.938, 216.408 150.250 C 216.321 149.563, 216.194 148.498, 216.125 147.883 C 216.052 147.236, 214.913 146.975, 213.411 147.262 C 211.382 147.650, 210.464 147.170, 209.161 145.040 C 208.248 143.546, 206.938 142.514, 206.250 142.745 C 204.481 143.341, 204.699 141.444, 206.619 139.524 C 207.510 138.633, 207.981 137.648, 207.667 137.333 C 207.352 137.019, 206.367 137.490, 205.476 138.381 C 203.455 140.403, 202.896 140.435, 203.643 138.489 C 204.020 137.506, 203.747 137.137, 202.861 137.434 C 201.388 137.928, 192.022 127.104, 191.968 124.846 C 191.951 124.106, 191.329 122.700, 190.587 121.722 C 189.339 120.077, 187.264 119.975, 162.931 120.368 C 138.906 120.756, 136.509 120.951, 135.290 122.618 C 134.556 123.621, 134.168 124.995, 134.427 125.670 C 134.714 126.417, 134.331 126.680, 133.449 126.342 C 132.652 126.036, 132 126.298, 132 126.924 C 132 127.551, 132.675 128.322, 133.500 128.638 C 134.815 129.143, 135 138.736, 135 206.607 C 135 282.667, 135.034 284.034, 137 286 C 138.965 287.965, 142.648 288.857, 141.566 287.106 C 140.881 285.999, 140.850 286, 166.750 286.065 C 181.079 286.102, 188 285.774, 188 285.060 C 188 284.477, 188.338 284.053, 188.750 284.118 C 191.961 284.625, 192 284.189, 192 247.700 C 192 220.800, 192.311 211.089, 193.200 210.200 C 194.662 208.738, 199.643 208.613, 200.510 210.016 C 200.856 210.575, 201.602 210.746, 202.169 210.396 C 202.822 209.992, 202.797 210.511, 202.100 211.814 C 200.059 215.627, 200.688 217.273, 204 216.787 C 205.744 216.531, 207.006 216.797, 207.015 217.423 C 207.024 218.036, 207.379 217.951, 207.839 217.226 C 208.460 216.248, 209.051 216.399, 210.389 217.877 C 211.696 219.321, 211.826 219.990, 210.911 220.555 C 210.132 221.037, 209.949 220.892, 210.405 220.155 C 210.805 219.506, 210.544 219, 209.809 219 C 209.028 219, 208.500 220.182, 208.500 221.931 C 208.500 224.177, 209.026 224.963, 210.750 225.293 C 212.192 225.568, 213 225.234, 213 224.361 C 213 221.730, 214.934 223.055, 219.402 228.750 C 221.883 231.912, 224.598 235.277, 225.434 236.227 C 226.270 237.177, 226.685 238.658, 226.355 239.518 C 226.025 240.378, 226.147 241.010, 226.627 240.922 C 229.861 240.332, 231.191 241.104, 230.650 243.258 C 229.912 246.200, 230.926 247.715, 233.923 248.149 C 235.468 248.373, 237.585 250.263, 239.761 253.363 C 241.639 256.038, 242.573 257.885, 241.838 257.467 C 240.760 256.855, 240.743 256.969, 241.750 258.053 C 242.438 258.794, 243 260.435, 243 261.700 C 243 262.965, 243.338 264.034, 243.750 264.077 C 245.594 264.265, 248.204 264.879, 248.420 265.175 C 252.617 270.939, 254.363 272.893, 254.978 272.514 C 255.393 272.257, 256.544 272.944, 257.536 274.039 C 259.275 275.962, 259.271 276.084, 257.419 277.516 C 255.529 278.977, 255.530 279.023, 257.470 280.521 C 259.275 281.915, 259.505 281.867, 260.212 279.957 C 260.636 278.810, 261.383 278.118, 261.871 278.420 C 263.202 279.243, 263.943 282.917, 262.906 283.558 C 261.322 284.537, 261.930 285.881, 263.890 285.733 C 265.078 285.644, 265.579 285.067, 265.239 284.179 C 264.793 283.017, 265.088 282.977, 266.904 283.949 C 268.413 284.756, 277.095 285.175, 294.306 285.272 L 319.500 285.414 295 285.984 L 270.500 286.554 294 286.782 C 306.925 286.908, 319.203 287.484, 321.284 288.062 C 325.940 289.355, 329.145 288.540, 328.279 286.285 C 327.867 285.211, 328.051 284.913, 328.830 285.395 C 329.474 285.793, 330 286.836, 330 287.714 C 330 289.104, 330.258 289.076, 332 287.500 C 333.533 286.112, 334.007 286.018, 334.030 287.095 C 334.052 288.085, 334.363 287.981, 335.085 286.742 C 335.648 285.775, 335.852 284.569, 335.538 284.061 C 335.224 283.554, 335.350 282.902, 335.817 282.613 C 336.284 282.324, 336.473 280.770, 336.237 279.159 C 335.686 275.405, 337.508 272, 340.067 272 C 341.164 272, 342.280 271.435, 342.545 270.744 C 342.863 269.915, 344.553 269.609, 347.513 269.845 C 351.973 270.199, 352 270.182, 352 266.984 C 352 264.092, 351.748 263.815, 349.500 264.245 C 346.293 264.858, 346.354 264.197, 349.897 259.962 C 352.187 257.225, 352.584 256.108, 351.795 254.625 C 350.552 252.293, 352.648 247.871, 354.818 248.246 C 355.629 248.385, 356.510 247.875, 356.776 247.111 C 357.113 246.141, 356.843 245.979, 355.880 246.572 C 354.978 247.128, 355.121 246.473, 356.292 244.683 C 357.277 243.176, 357.816 241.511, 357.490 240.983 C 357.159 240.448, 357.583 240.286, 358.448 240.618 C 359.302 240.946, 360 240.716, 360 240.107 C 360 239.498, 359.523 239, 358.941 239 C 358.359 239, 358.198 238.489, 358.583 237.865 C 359.038 237.129, 359.716 237.535, 360.509 239.016 C 361.413 240.706, 361.878 240.937, 362.290 239.901 C 362.752 238.741, 363.009 238.730, 363.786 239.835 C 364.302 240.570, 365.028 241.020, 365.400 240.835 C 366.953 240.065, 377.243 259.732, 375.765 260.645 C 375.053 261.085, 375.169 261.671, 376.114 262.403 C 376.893 263.006, 379.095 265.525, 381.006 268 C 382.918 270.475, 385.318 273.400, 386.340 274.500 C 388.551 276.880, 389.960 280.170, 389.269 281.338 C 388.996 281.800, 388.261 281.160, 387.636 279.917 C 385.956 276.576, 384 276.338, 384 279.476 C 384 280.983, 384.430 281.852, 385 281.500 C 385.571 281.147, 386 282.028, 386 283.558 C 386 285.872, 386.337 286.169, 388.500 285.755 C 390.176 285.435, 391 285.726, 391 286.639 C 391 287.387, 391.477 288, 392.059 288 C 392.641 288, 392.841 287.551, 392.502 287.003 C 392.104 286.359, 392.702 286.314, 394.193 286.876 C 395.462 287.354, 402.125 287.747, 409 287.748 C 416.633 287.750, 420.332 287.457, 418.500 286.994 C 416.785 286.561, 423.422 286.193, 434 286.134 C 444.429 286.076, 451.918 286.400, 451.165 286.877 C 450.164 287.511, 450.395 287.870, 452.089 288.313 C 453.331 288.638, 454.732 288.666, 455.202 288.375 C 455.673 288.084, 455.760 280.561, 455.396 271.656 C 454.840 258.050, 454.969 255.271, 456.206 254.244 C 457.302 253.334, 468.389 252.953, 499.589 252.750 L 541.500 252.477 499.250 252.239 C 471.116 252.080, 457 251.656, 457 250.971 C 457 250.277, 472.089 250.033, 503.406 250.221 C 528.929 250.375, 549.292 250.131, 548.656 249.679 C 547.993 249.209, 548.887 249.028, 550.750 249.256 C 552.646 249.488, 554.006 249.205, 554.015 248.577 C 554.024 247.985, 554.467 248.175, 555 249 C 555.533 249.825, 555.976 249.986, 555.985 249.358 C 555.993 248.731, 557.223 247.910, 558.718 247.535 C 562.579 246.565, 568.766 241.755, 568.222 240.145 C 567.890 239.164, 568.349 238.976, 569.885 239.463 C 572.227 240.207, 575.559 237.714, 574.505 236.008 C 574.162 235.453, 574.385 235, 575 235 C 575.615 235, 575.819 234.516, 575.453 233.923 C 575.087 233.331, 575.735 231.964, 576.894 230.884 C 578.052 229.805, 578.993 228.377, 578.985 227.711 C 578.975 226.939, 578.585 227.044, 577.909 228 C 576.504 229.986, 576.996 228.696, 580.388 221.500 C 583.040 215.875, 583.277 214.282, 584.184 196 C 585.416 171.180, 584.387 161.205, 579.302 148.645 C 577.303 143.707, 574.861 138.861, 573.875 137.875 C 570.254 134.254, 558.419 126.266, 555.709 125.613 C 553.996 125.201, 553.187 124.507, 553.614 123.816 C 554.033 123.138, 553.860 122.969, 553.179 123.390 C 552.557 123.774, 549.238 123.508, 545.804 122.799 C 540.255 121.652, 539.891 121.438, 542.530 120.874 C 544.164 120.524, 513.296 120.190, 473.936 120.131 C 434.576 120.072, 400.911 119.732, 399.126 119.375 C 395.394 118.629, 391.041 120.508, 390.921 122.919 C 390.869 123.952, 390.667 124.066, 390.338 123.250 C 390.060 122.563, 388.922 122, 387.807 122 C 386.084 122, 385.842 122.518, 386.186 125.471 C 386.447 127.707, 386.130 129.120, 385.296 129.440 C 384.583 129.713, 384 130.428, 384 131.028 C 384 131.627, 384.434 131.850, 384.964 131.522 C 386.290 130.703, 383.138 138.256, 381.635 139.500 C 379.481 141.283, 376.308 146.431, 375.627 149.250 C 375.133 151.290, 374.350 152, 372.589 152 C 370.519 152, 368.706 154.668, 369.192 157 C 369.430 158.143, 365.058 165.640, 363.144 167.371 C 362.006 168.400, 360.405 168.986, 359.586 168.671 C 357.249 167.774, 352.020 157.844, 352.009 154.281 C 352.003 152.109, 351.591 151.220, 350.742 151.545 C 349.668 151.958, 343 142.498, 343 140.562 C 343 140.219, 340.975 136.919, 338.500 133.229 C 336.025 129.540, 334 125.964, 334 125.284 C 334 122.141, 329.647 121.096, 316.498 121.081 C 297.666 121.059, 271.852 120.186, 271.215 119.548 C 270.209 118.542, 268.909 118.984, 269.153 120.250 M 265.422 180 C 265.422 191.275, 265.568 195.887, 265.746 190.250 C 265.924 184.613, 265.924 175.387, 265.746 169.750 C 265.568 164.113, 265.422 168.725, 265.422 180 M 456.418 170.091 C 456.851 173.356, 456.690 175.669, 455.968 176.538 C 454.661 178.114, 454.989 204.329, 456.333 205.670 C 457.635 206.968, 518.956 207.281, 520.504 205.997 C 521.214 205.407, 522.732 204.744, 523.877 204.524 C 526.306 204.056, 529.968 202.077, 528.500 202.025 C 527.950 202.006, 528.841 200.917, 530.480 199.606 C 533.432 197.244, 533.464 197.112, 533.771 185.860 C 534.054 175.487, 533.947 174.669, 532.540 176.441 C 531.075 178.287, 530.999 178.214, 530.985 174.941 C 530.975 172.682, 530.679 171.957, 530.125 172.831 C 529.552 173.736, 529.079 172.894, 528.649 170.208 C 528.099 166.770, 527.608 166.172, 524.883 165.627 C 523.160 165.282, 506.898 165, 488.746 165 L 455.742 165 456.418 170.091 M 190.343 202.500 C 190.346 206.900, 190.522 208.576, 190.733 206.224 C 190.945 203.872, 190.942 200.272, 190.727 198.224 C 190.512 196.176, 190.339 198.100, 190.343 202.500 M 194.558 211.250 C 193.255 215.539, 193.326 216.730, 194.878 216.618 C 195.942 216.540, 196.609 217.447, 196.816 219.250 C 197.091 221.634, 197.575 222, 200.450 222 C 202.909 222, 203.900 221.491, 204.282 220.030 C 204.680 218.506, 204.337 218.109, 202.766 218.280 C 200.598 218.515, 196.456 212.690, 197.542 210.933 C 197.859 210.420, 197.402 210, 196.528 210 C 195.653 210, 194.766 210.563, 194.558 211.250 M 202 214.500 C 202 215.628, 202.702 216.039, 204.250 215.820 C 205.488 215.644, 206.500 215.050, 206.500 214.500 C 206.500 213.950, 205.488 213.356, 204.250 213.180 C 202.702 212.961, 202 213.372, 202 214.500 M 357.935 244.121 C 357.061 245.754, 357.078 246.070, 358.007 245.495 C 358.881 244.956, 359.017 245.372, 358.500 247 C 358.028 248.487, 358.147 249.027, 358.850 248.593 C 359.699 248.068, 360.099 242.010, 359.285 242.002 C 359.167 242.001, 358.560 242.954, 357.935 244.121 M 233.649 249.758 C 232.710 251.279, 233.965 254, 235.607 254 C 237.362 254, 237.376 252.897, 235.653 250.540 C 234.804 249.379, 234.062 249.090, 233.649 249.758 M 554 253 C 554 253.550, 554.900 254, 556 254 C 557.100 254, 558 253.550, 558 253 C 558 252.450, 557.100 252, 556 252 C 554.900 252, 554 252.450, 554 253 M 544 254.536 L 537.500 255.784 543.643 255.892 C 548.253 255.973, 549.930 255.626, 550.362 254.500 C 550.678 253.675, 550.839 253.065, 550.719 253.144 C 550.598 253.222, 547.575 253.849, 544 254.536 M 485.311 255.748 C 493.457 255.916, 506.507 255.916, 514.311 255.747 C 522.115 255.579, 515.450 255.441, 499.500 255.441 C 483.550 255.442, 477.165 255.580, 485.311 255.748 M 432.750 287.732 C 435.087 287.943, 438.913 287.943, 441.250 287.732 C 443.587 287.522, 441.675 287.349, 437 287.349 C 432.325 287.349, 430.413 287.522, 432.750 287.732" stroke="none" fill="#ffffff" fill-rule="evenodd"/><path d="M 137 203.500 L 137 284 161.500 284 L 186 284 186 236 C 186 209.600, 186.338 188.012, 186.750 188.027 C 187.162 188.042, 189.126 189.955, 191.113 192.277 C 193.100 194.600, 199.400 201.900, 205.113 208.500 C 210.826 215.100, 217.965 223.425, 220.976 227 C 223.988 230.575, 229.639 237.100, 233.535 241.500 C 237.430 245.900, 241.716 250.901, 243.059 252.614 C 250.278 261.824, 270.275 283.989, 271.304 283.921 C 272.115 283.867, 272.078 283.673, 271.189 283.317 C 270.139 282.897, 270.174 282.465, 271.364 281.146 C 272.182 280.241, 278.433 270.275, 285.255 259 C 292.077 247.725, 300.719 233.550, 304.460 227.500 C 315.985 208.861, 318 205.235, 318 203.135 C 318 202.020, 314.512 195.412, 310.250 188.452 C 305.988 181.492, 300.433 172.355, 297.907 168.148 C 295.380 163.942, 290.430 155.886, 286.907 150.247 C 283.383 144.608, 278.475 136.634, 276 132.526 C 273.525 128.419, 271.163 125.045, 270.750 125.029 C 270.337 125.013, 270 145.925, 270 171.500 C 270 197.075, 269.616 218, 269.146 218 C 268.404 218, 250.153 197.493, 241.500 186.936 C 239.850 184.924, 234.068 178.152, 228.650 171.888 C 223.233 165.625, 211.533 152.066, 202.650 141.758 L 186.500 123.016 161.750 123.008 L 137 123 137 203.500" stroke="none" fill="#f7b60b" fill-rule="evenodd"/><path d="M 270 124 C 270 124.550, 270.337 125.013, 270.750 125.029 C 271.163 125.045, 273.525 128.419, 276 132.526 C 278.475 136.634, 283.383 144.608, 286.907 150.247 C 290.430 155.886, 295.380 163.941, 297.907 168.147 C 300.433 172.353, 305.552 180.766, 309.281 186.843 C 313.011 192.920, 316.721 199.154, 317.525 200.696 C 318.986 203.497, 318.988 203.494, 318.994 198.450 C 318.997 195.673, 318.490 192.890, 317.867 192.267 C 317.203 191.603, 317.058 190.382, 317.517 189.317 C 317.947 188.318, 318.344 172.988, 318.400 155.251 L 318.500 123.002 294.250 123.001 C 278.749 123, 270 123.361, 270 124 M 314.894 210.259 C 312.911 213.692, 308.221 221.450, 304.473 227.500 C 300.725 233.550, 292.077 247.725, 285.255 259 C 278.433 270.275, 272.159 280.266, 271.313 281.203 C 269.911 282.755, 269.984 282.957, 272.138 283.485 C 273.437 283.804, 284.400 283.938, 296.500 283.783 L 318.500 283.500 318.684 243.750 C 318.785 221.887, 318.785 204.004, 318.684 204.009 C 318.583 204.014, 316.877 206.827, 314.894 210.259" stroke="none" fill="#938136" fill-rule="evenodd"/><path d="M 319.990 157.250 C 319.984 176.088, 319.872 212.333, 319.740 237.795 L 319.500 284.089 323.998 283.795 L 328.497 283.500 344.696 257.517 C 353.606 243.227, 361.256 231.441, 361.698 231.326 C 362.139 231.212, 369.876 243.016, 378.891 257.559 L 395.281 284 399.891 284 L 404.500 284 404.238 203.500 L 403.977 123 399.492 123 C 395.082 123, 394.944 123.102, 391.253 129.081 C 389.189 132.425, 384.756 139.512, 381.403 144.831 C 378.049 150.149, 372.679 158.775, 369.468 164 C 366.258 169.225, 363.152 174.030, 362.566 174.678 C 361.783 175.544, 358.600 171.162, 350.581 158.178 C 327.750 121.215, 329.095 123.010, 324.250 123.005 L 320 123 319.990 157.250" stroke="none" fill="#5ab1dc" fill-rule="evenodd"/><path d="M 318.437 129.741 C 318.040 133.449, 317.951 148.038, 318.239 162.160 C 318.594 179.599, 318.422 188.178, 317.701 188.899 C 316.953 189.647, 316.987 190.629, 317.814 192.230 C 318.672 193.889, 318.922 206.510, 318.744 239.155 C 318.610 263.715, 318.836 283.602, 319.246 283.348 C 320.004 282.880, 320.328 123, 319.571 123 C 319.345 123, 318.834 126.034, 318.437 129.741 M 404.244 203.250 L 404.500 283.500 428.750 283.768 C 445.674 283.955, 453 283.708, 453 282.951 C 453 282.355, 451.986 280.434, 450.747 278.683 C 448.462 275.453, 448.166 274.983, 443.398 267 C 439.719 260.841, 428.779 243.104, 423.045 234 C 411.223 215.234, 404.821 203.792, 405.242 202.182 C 405.491 201.229, 407.816 197.085, 410.408 192.974 C 413 188.863, 418.287 180.325, 422.157 174 C 426.028 167.675, 430.210 160.925, 431.452 159 C 436.066 151.844, 453 123.923, 453 123.470 C 453 123.211, 441.972 123, 428.494 123 L 403.988 123 404.244 203.250" stroke="none" fill="#739632" fill-rule="evenodd"/><path d="M 443.610 139.207 C 438.171 148.168, 432.702 157.075, 431.457 159 C 430.213 160.925, 426.028 167.675, 422.157 174 C 418.287 180.325, 413 188.863, 410.408 192.974 C 407.816 197.085, 405.491 201.229, 405.242 202.182 C 404.821 203.792, 411.223 215.234, 423.045 234 C 431.649 247.659, 441.597 263.897, 448.358 275.320 C 449.380 277.046, 451.067 279.541, 452.108 280.864 C 453.984 283.249, 454 283.117, 454 265.680 L 454 248.090 502.250 247.795 L 550.500 247.500 558.500 243.444 C 575.761 234.692, 583.053 218.033, 582.974 187.526 C 582.930 170.314, 581.380 158.784, 577.960 150.225 C 573.303 138.569, 565.347 131.408, 551.483 126.395 L 543.500 123.508 498.500 123.211 L 453.500 122.914 443.610 139.207 M 454 185.500 L 454 208 489.250 207.985 C 515.353 207.974, 525.138 207.648, 526.959 206.726 C 528.311 206.042, 530.786 203.535, 532.459 201.156 C 535.384 196.994, 535.512 196.366, 535.817 184.665 L 536.134 172.500 533.023 168.785 C 531.144 166.541, 528.444 164.662, 526.206 164.040 C 523.999 163.427, 508.647 163.009, 488.250 163.006 L 454 163 454 185.500" stroke="none" fill="#c9d300" fill-rule="evenodd"/><path d="M 258 117 C 258 119.222, 258.467 120, 259.800 120 C 262.104 120, 264 118.104, 264 115.800 C 264 114.467, 263.222 114, 261 114 C 258.333 114, 258 114.333, 258 117 M 269.153 120.250 C 269.478 121.935, 265.385 130.519, 264.794 129.391 C 264.538 128.901, 264.503 129.162, 264.717 129.971 C 265.283 132.108, 263.786 203.119, 263.187 202.521 C 262.911 202.244, 262.120 202.485, 261.431 203.057 C 259.942 204.293, 258.539 202.581, 258.515 199.500 C 258.507 198.400, 257.938 197.444, 257.250 197.375 C 256.563 197.306, 255.887 197.159, 255.750 197.048 C 255.613 196.938, 254.727 196.698, 253.782 196.517 C 251.341 196.047, 247.082 191.002, 246.354 187.715 C 246.014 186.184, 245.536 185.131, 245.291 185.376 C 245.046 185.620, 242.107 183.056, 238.760 179.677 C 232.863 173.725, 231.777 171.510, 231.947 165.780 C 232.021 163.278, 231.735 163.071, 228.373 163.197 C 226.005 163.286, 224.293 162.753, 223.510 161.683 C 222.846 160.774, 222.009 160.324, 221.651 160.682 C 221.293 161.040, 220.998 160.696, 220.995 159.917 C 220.992 159.137, 219.835 157.150, 218.423 155.500 C 217.011 153.850, 216.179 153.175, 216.574 154 C 217.168 155.239, 217.052 155.276, 215.905 154.208 C 215.002 153.368, 214.875 152.669, 215.542 152.208 C 216.106 151.819, 216.496 150.938, 216.408 150.250 C 216.321 149.563, 216.194 148.498, 216.125 147.883 C 216.052 147.236, 214.913 146.975, 213.411 147.262 C 211.382 147.650, 210.464 147.170, 209.161 145.040 C 208.248 143.546, 206.938 142.514, 206.250 142.745 C 204.481 143.341, 204.699 141.444, 206.619 139.524 C 207.510 138.633, 207.981 137.648, 207.667 137.333 C 207.352 137.019, 206.367 137.490, 205.476 138.381 C 203.455 140.403, 202.896 140.435, 203.643 138.489 C 204.020 137.506, 203.747 137.137, 202.861 137.434 C 201.388 137.928, 192.022 127.104, 191.968 124.846 C 191.951 124.106, 191.329 122.700, 190.587 121.722 C 189.339 120.077, 187.264 119.975, 162.931 120.368 C 138.906 120.756, 136.509 120.951, 135.290 122.618 C 134.556 123.621, 134.168 124.995, 134.427 125.670 C 134.714 126.417, 134.331 126.680, 133.449 126.342 C 132.652 126.036, 132 126.298, 132 126.924 C 132 127.551, 132.675 128.322, 133.500 128.638 C 134.815 129.143, 135 138.736, 135 206.607 C 135 282.667, 135.034 284.034, 137 286 C 138.965 287.965, 142.648 288.857, 141.566 287.106 C 140.881 285.999, 140.850 286, 166.750 286.065 C 181.079 286.102, 188 285.774, 188 285.060 C 188 284.477, 188.338 284.053, 188.750 284.118 C 191.961 284.625, 192 284.189, 192 247.700 C 192 220.800, 192.311 211.089, 193.200 210.200 C 194.662 208.738, 199.643 208.613, 200.510 210.016 C 200.856 210.575, 201.602 210.746, 202.169 210.396 C 202.822 209.992, 202.797 210.511, 202.100 211.814 C 200.059 215.627, 200.688 217.273, 204 216.787 C 205.744 216.531, 207.006 216.797, 207.015 217.423 C 207.024 218.036, 207.379 217.951, 207.839 217.226 C 208.460 216.248, 209.051 216.399, 210.389 217.877 C 211.696 219.321, 211.826 219.990, 210.911 220.555 C 210.132 221.037, 209.949 220.892, 210.405 220.155 C 210.805 219.506, 210.544 219, 209.809 219 C 209.028 219, 208.500 220.182, 208.500 221.931 C 208.500 224.177, 209.026 224.963, 210.750 225.293 C 212.192 225.568, 213 225.234, 213 224.361 C 213 221.730, 214.934 223.055, 219.402 228.750 C 221.883 231.912, 224.598 235.277, 225.434 236.227 C 226.270 237.177, 226.685 238.658, 226.355 239.518 C 226.025 240.378, 226.147 241.010, 226.627 240.922 C 229.861 240.332, 231.191 241.104, 230.650 243.258 C 229.912 246.200, 230.926 247.715, 233.923 248.149 C 235.468 248.373, 237.585 250.263, 239.761 253.363 C 241.639 256.038, 242.573 257.885, 241.838 257.467 C 240.760 256.855, 240.743 256.969, 241.750 258.053 C 242.438 258.794, 243 260.435, 243 261.700 C 243 262.965, 243.338 264.034, 243.750 264.077 C 245.594 264.265, 248.204 264.879, 248.420 265.175 C 252.617 270.939, 254.363 272.893, 254.978 272.514 C 255.393 272.257, 256.544 272.944, 257.536 274.039 C 259.275 275.962, 259.271 276.084, 257.419 277.516 C 255.529 278.977, 255.530 279.023, 257.470 280.521 C 259.275 281.915, 259.505 281.867, 260.212 279.957 C 260.636 278.810, 261.383 278.118, 261.871 278.420 C 263.202 279.243, 263.943 282.917, 262.906 283.558 C 261.322 284.537, 261.930 285.881, 263.890 285.733 C 265.078 285.644, 265.579 285.067, 265.239 284.179 C 264.793 283.017, 265.088 282.977, 266.904 283.949 C 268.413 284.756, 277.095 285.175, 294.306 285.272 L 319.500 285.414 295 285.984 L 270.500 286.554 294 286.782 C 306.925 286.908, 319.203 287.484, 321.284 288.062 C 325.940 289.355, 329.145 288.540, 328.279 286.285 C 327.867 285.211, 328.051 284.913, 328.830 285.395 C 329.474 285.793, 330 286.836, 330 287.714 C 330 289.104, 330.258 289.076, 332 287.500 C 333.533 286.112, 334.007 286.018, 334.030 287.095 C 334.052 288.085, 334.363 287.981, 335.085 286.742 C 335.648 285.775, 335.852 284.569, 335.538 284.061 C 335.224 283.554, 335.350 282.902, 335.817 282.613 C 336.284 282.324, 336.473 280.770, 336.237 279.159 C 335.686 275.405, 337.508 272, 340.067 272 C 341.164 272, 342.280 271.435, 342.545 270.744 C 342.863 269.915, 344.553 269.609, 347.513 269.845 C 351.973 270.199, 352 270.182, 352 266.984 C 352 264.092, 351.748 263.815, 349.500 264.245 C 346.293 264.858, 346.354 264.197, 349.897 259.962 C 352.187 257.225, 352.584 256.108, 351.795 254.625 C 350.552 252.293, 352.648 247.871, 354.818 248.246 C 355.629 248.385, 356.510 247.875, 356.776 247.111 C 357.113 246.141, 356.843 245.979, 355.880 246.572 C 354.978 247.128, 355.121 246.473, 356.292 244.683 C 357.277 243.176, 357.816 241.511, 357.490 240.983 C 357.159 240.448, 357.583 240.286, 358.448 240.618 C 359.302 240.946, 360 240.716, 360 240.107 C 360 239.498, 359.523 239, 358.941 239 C 358.359 239, 358.198 238.489, 358.583 237.865 C 359.038 237.129, 359.716 237.535, 360.509 239.016 C 361.413 240.706, 361.878 240.937, 362.290 239.901 C 362.752 238.741, 363.009 238.730, 363.786 239.835 C 364.302 240.570, 365.028 241.020, 365.400 240.835 C 366.953 240.065, 377.243 259.732, 375.765 260.645 C 375.053 261.085, 375.169 261.671, 376.114 262.403 C 376.893 263.006, 379.095 265.525, 381.006 268 C 382.918 270.475, 385.318 273.400, 386.340 274.500 C 388.551 276.880, 389.960 280.170, 389.269 281.338 C 388.996 281.800, 388.261 281.160, 387.636 279.917 C 385.956 276.576, 384 276.338, 384 279.476 C 384 280.983, 384.430 281.852, 385 281.500 C 385.571 281.147, 386 282.028, 386 283.558 C 386 285.872, 386.337 286.169, 388.500 285.755 C 390.176 285.435, 391 285.726, 391 286.639 C 391 287.387, 391.477 288, 392.059 288 C 392.641 288, 392.841 287.551, 392.502 287.003 C 392.104 286.359, 392.702 286.314, 394.193 286.876 C 395.462 287.354, 402.125 287.747, 409 287.748 C 416.633 287.750, 420.332 287.457, 418.500 286.994 C 416.785 286.561, 423.422 286.193, 434 286.134 C 444.429 286.076, 451.918 286.400, 451.165 286.877 C 450.164 287.511, 450.395 287.870, 452.089 288.313 C 453.331 288.638, 454.732 288.666, 455.202 288.375 C 455.673 288.084, 455.760 280.561, 455.396 271.656 C 454.840 258.050, 454.969 255.271, 456.206 254.244 C 457.302 253.334, 468.389 252.953, 499.589 252.750 L 541.500 252.477 499.250 252.239 C 471.116 252.080, 457 251.656, 457 250.971 C 457 250.277, 472.089 250.033, 503.406 250.221 C 528.929 250.375, 549.292 250.131, 548.656 249.679 C 547.993 249.209, 548.887 249.028, 550.750 249.256 C 552.646 249.488, 554.006 249.205, 554.015 248.577 C 554.024 247.985, 554.467 248.175, 555 249 C 555.533 249.825, 555.976 249.986, 555.985 249.358 C 555.993 248.731, 557.223 247.910, 558.718 247.535 C 562.579 246.565, 568.766 241.755, 568.222 240.145 C 567.890 239.164, 568.349 238.976, 569.885 239.463 C 572.227 240.207, 575.559 237.714, 574.505 236.008 C 574.162 235.453, 574.385 235, 575 235 C 575.615 235, 575.819 234.516, 575.453 233.923 C 575.087 233.331, 575.735 231.964, 576.894 230.884 C 578.052 229.805, 578.993 228.377, 578.985 227.711 C 578.975 226.939, 578.585 227.044, 577.909 228 C 576.504 229.986, 576.996 228.696, 580.388 221.500 C 583.040 215.875, 583.277 214.282, 584.184 196 C 585.416 171.180, 584.387 161.205, 579.302 148.645 C 577.303 143.707, 574.861 138.861, 573.875 137.875 C 570.254 134.254, 558.419 126.266, 555.709 125.613 C 553.996 125.201, 553.187 124.507, 553.614 123.816 C 554.033 123.138, 553.860 122.969, 553.179 123.390 C 552.557 123.774, 549.238 123.508, 545.804 122.799 C 540.255 121.652, 539.891 121.438, 542.530 120.874 C 544.164 120.524, 513.296 120.190, 473.936 120.131 C 434.576 120.072, 400.911 119.732, 399.126 119.375 C 395.394 118.629, 391.041 120.508, 390.921 122.919 C 390.869 123.952, 390.667 124.066, 390.338 123.250 C 390.060 122.563, 388.922 122, 387.807 122 C 386.084 122, 385.842 122.518, 386.186 125.471 C 386.447 127.707, 386.130 129.120, 385.296 129.440 C 384.583 129.713, 384 130.428, 384 131.028 C 384 131.627, 384.434 131.850, 384.964 131.522 C 386.290 130.703, 383.138 138.256, 381.635 139.500 C 379.481 141.283, 376.308 146.431, 375.627 149.250 C 375.133 151.290, 374.350 152, 372.589 152 C 370.519 152, 368.706 154.668, 369.192 157 C 369.430 158.143, 365.058 165.640, 363.144 167.371 C 362.006 168.400, 360.405 168.986, 359.586 168.671 C 357.249 167.774, 352.020 157.844, 352.009 154.281 C 352.003 152.109, 351.591 151.220, 350.742 151.545 C 349.668 151.958, 343 142.498, 343 140.562 C 343 140.219, 340.975 136.919, 338.500 133.229 C 336.025 129.540, 334 125.964, 334 125.284 C 334 122.141, 329.647 121.096, 316.498 121.081 C 297.666 121.059, 271.852 120.186, 271.215 119.548 C 270.209 118.542, 268.909 118.984, 269.153 120.250 M 270.415 122.917 C 270.187 123.146, 270 144.633, 270 170.667 C 270 196.700, 269.616 218, 269.146 218 C 268.404 218, 250.153 197.493, 241.500 186.936 C 239.850 184.924, 234.068 178.152, 228.650 171.888 C 223.233 165.625, 211.533 152.066, 202.650 141.758 L 186.500 123.016 161.750 123.008 L 137 123 137 203.500 L 137 284 161.500 284 L 186 284 186 236 C 186 209.600, 186.338 188.012, 186.750 188.027 C 187.162 188.042, 189.126 189.955, 191.113 192.277 C 193.100 194.600, 199.400 201.900, 205.113 208.500 C 210.826 215.100, 217.965 223.425, 220.976 227 C 223.988 230.575, 229.639 237.100, 233.535 241.500 C 237.430 245.900, 241.716 250.901, 243.059 252.614 C 244.401 254.327, 251.042 262.097, 257.817 269.879 L 270.133 284.030 299.309 283.765 L 328.485 283.500 344.690 257.517 C 353.603 243.227, 361.256 231.441, 361.698 231.326 C 362.139 231.212, 369.880 243.023, 378.900 257.574 L 395.300 284.030 424.400 283.765 L 453.500 283.500 453.773 265.795 L 454.046 248.090 502.273 247.795 L 550.500 247.500 558.500 243.444 C 575.761 234.692, 583.053 218.033, 582.974 187.526 C 582.930 170.314, 581.380 158.784, 577.960 150.225 C 573.304 138.571, 565.352 131.413, 551.483 126.391 L 543.500 123.500 469.280 123.208 L 395.059 122.916 391.280 129.039 C 389.201 132.406, 384.756 139.512, 381.403 144.831 C 378.049 150.149, 372.679 158.775, 369.468 164 C 366.258 169.225, 363.152 174.030, 362.566 174.678 C 361.783 175.544, 358.600 171.162, 350.581 158.178 C 344.576 148.455, 337.153 136.575, 334.086 131.779 L 328.510 123.058 299.670 122.779 C 283.809 122.625, 270.644 122.688, 270.415 122.917 M 265.422 180 C 265.422 191.275, 265.568 195.887, 265.746 190.250 C 265.924 184.613, 265.924 175.387, 265.746 169.750 C 265.568 164.113, 265.422 168.725, 265.422 180 M 454 185.500 L 454 208 489.250 207.985 C 515.353 207.974, 525.138 207.648, 526.959 206.726 C 528.311 206.042, 530.786 203.535, 532.459 201.156 C 535.384 196.994, 535.512 196.366, 535.817 184.665 L 536.134 172.500 533.023 168.785 C 531.144 166.541, 528.444 164.662, 526.206 164.040 C 523.999 163.427, 508.647 163.009, 488.250 163.006 L 454 163 454 185.500 M 456.418 170.091 C 456.851 173.356, 456.690 175.669, 455.968 176.538 C 454.661 178.114, 454.989 204.329, 456.333 205.670 C 457.635 206.968, 518.956 207.281, 520.504 205.997 C 521.214 205.407, 522.732 204.744, 523.877 204.524 C 526.306 204.056, 529.968 202.077, 528.500 202.025 C 527.950 202.006, 528.841 200.917, 530.480 199.606 C 533.432 197.244, 533.464 197.112, 533.771 185.860 C 534.054 175.487, 533.947 174.669, 532.540 176.441 C 531.075 178.287, 530.999 178.214, 530.985 174.941 C 530.975 172.682, 530.679 171.957, 530.125 172.831 C 529.552 173.736, 529.079 172.894, 528.649 170.208 C 528.099 166.770, 527.608 166.172, 524.883 165.627 C 523.160 165.282, 506.898 165, 488.746 165 L 455.742 165 456.418 170.091 M 190.343 202.500 C 190.346 206.900, 190.522 208.576, 190.733 206.224 C 190.945 203.872, 190.942 200.272, 190.727 198.224 C 190.512 196.176, 190.339 198.100, 190.343 202.500 M 194.558 211.250 C 193.255 215.539, 193.326 216.730, 194.878 216.618 C 195.942 216.540, 196.609 217.447, 196.816 219.250 C 197.091 221.634, 197.575 222, 200.450 222 C 202.909 222, 203.900 221.491, 204.282 220.030 C 204.680 218.506, 204.337 218.109, 202.766 218.280 C 200.598 218.515, 196.456 212.690, 197.542 210.933 C 197.859 210.420, 197.402 210, 196.528 210 C 195.653 210, 194.766 210.563, 194.558 211.250 M 202 214.500 C 202 215.628, 202.702 216.039, 204.250 215.820 C 205.488 215.644, 206.500 215.050, 206.500 214.500 C 206.500 213.950, 205.488 213.356, 204.250 213.180 C 202.702 212.961, 202 213.372, 202 214.500 M 357.935 244.121 C 357.061 245.754, 357.078 246.070, 358.007 245.495 C 358.881 244.956, 359.017 245.372, 358.500 247 C 358.028 248.487, 358.147 249.027, 358.850 248.593 C 359.699 248.068, 360.099 242.010, 359.285 242.002 C 359.167 242.001, 358.560 242.954, 357.935 244.121 M 233.649 249.758 C 232.710 251.279, 233.965 254, 235.607 254 C 237.362 254, 237.376 252.897, 235.653 250.540 C 234.804 249.379, 234.062 249.090, 233.649 249.758 M 554 253 C 554 253.550, 554.900 254, 556 254 C 557.100 254, 558 253.550, 558 253 C 558 252.450, 557.100 252, 556 252 C 554.900 252, 554 252.450, 554 253 M 544 254.536 L 537.500 255.784 543.643 255.892 C 548.253 255.973, 549.930 255.626, 550.362 254.500 C 550.678 253.675, 550.839 253.065, 550.719 253.144 C 550.598 253.222, 547.575 253.849, 544 254.536 M 485.311 255.748 C 493.457 255.916, 506.507 255.916, 514.311 255.747 C 522.115 255.579, 515.450 255.441, 499.500 255.441 C 483.550 255.442, 477.165 255.580, 485.311 255.748 M 432.750 287.732 C 435.087 287.943, 438.913 287.943, 441.250 287.732 C 443.587 287.522, 441.675 287.349, 437 287.349 C 432.325 287.349, 430.413 287.522, 432.750 287.732" stroke="none" fill="#fbfbfb" fill-rule="evenodd"/></svg>