<svg xmlns="http://www.w3.org/2000/svg" width="1203" height="757" viewBox="0 0 1203 757" version="1.1"><path d="" stroke="none" fill="#285cac" fill-rule="evenodd"/><path d="M 5 262.775 C 5 263.202, 3.875 269.964, 2.500 277.803 C 1.125 285.642, -0 292.718, -0 293.528 C -0 294.800, 5.442 295, 39.975 295 L 79.950 295 79.413 297.750 C 75.888 315.801, 46.417 485.696, 46.715 486.250 C 46.936 486.663, 57.231 487, 69.590 487 C 86.659 487, 92.172 486.699, 92.518 485.750 C 92.768 485.063, 100.191 443.325, 109.013 393 C 117.835 342.675, 125.315 300.043, 125.636 298.261 L 126.218 295.022 166.802 294.761 L 207.386 294.500 209.631 281.500 C 210.865 274.350, 212.149 267.038, 212.483 265.250 L 213.091 262 109.045 262 C 51.820 262, 5 262.349, 5 262.775 M 1109.183 293.751 C 1108.642 296.363, 1106.929 306.030, 1105.375 315.234 L 1102.550 331.968 1076.750 332.234 L 1050.951 332.500 1061.097 347.250 L 1071.244 362 1084.210 362 L 1097.176 362 1096.524 365.750 C 1096.166 367.813, 1091.257 395.600, 1085.615 427.500 C 1079.973 459.400, 1075.528 485.837, 1075.738 486.250 C 1075.947 486.663, 1086.351 487, 1098.858 487 L 1121.598 487 1132.549 424.515 L 1143.500 362.030 1171.990 361.765 L 1200.479 361.500 1157.041 326.500 C 1133.149 307.250, 1112.829 290.938, 1111.884 290.251 C 1110.349 289.136, 1110.060 289.511, 1109.183 293.751 M 225.729 330.448 C 186.407 337.381, 156.872 362.235, 146.047 397.500 C 135.804 430.866, 146.788 463.682, 173.100 478.330 C 188.218 486.746, 199.149 489.001, 224.815 488.997 C 245.857 488.993, 255.415 487.843, 270.333 483.520 C 279.409 480.890, 293.999 474.594, 294.001 473.307 C 294.002 472.863, 295.368 464.904, 297.037 455.619 C 298.706 446.334, 299.937 438.604, 299.773 438.439 C 299.609 438.275, 296.330 440.130, 292.487 442.561 C 274.017 454.244, 248.452 461.031, 228.638 459.512 C 202.292 457.492, 187.870 446.761, 186.298 428.009 L 185.710 421 246.316 421 L 306.923 421 308.433 415.914 C 312.560 402.017, 313.464 383.347, 310.567 371.849 C 305.353 351.160, 291.313 337.345, 269.500 331.439 C 261.247 329.204, 236.020 328.633, 225.729 330.448 M 346 329.807 C 346 330.251, 345.090 338.014, 343.978 347.057 C 341.786 364.879, 339.843 376.804, 328.471 442.232 C 324.362 465.875, 321 485.619, 321 486.109 C 321 486.604, 331.180 487, 343.921 487 L 366.841 487 367.432 484.250 C 367.757 482.738, 371.622 461.025, 376.020 436 C 384.892 385.530, 385.353 383.976, 394.095 375.095 C 400.726 368.359, 407.797 364.413, 416.860 362.392 C 429.661 359.537, 441.406 362.246, 447.821 369.534 C 456.226 379.083, 456.094 384.577, 446.108 441 C 441.777 465.475, 438.549 485.846, 438.936 486.270 C 439.323 486.693, 449.728 486.918, 462.058 486.770 L 484.478 486.500 492.672 440.500 C 497.179 415.200, 501.184 390.202, 501.571 384.949 C 503.737 355.552, 489.892 336.140, 462.792 330.581 C 438.157 325.528, 408.395 333.039, 391.465 348.583 L 386.941 352.736 366.902 340.868 C 355.880 334.341, 346.668 329, 346.431 329 C 346.194 329, 346 329.363, 346 329.807 M 614.810 330.076 C 594.731 332.550, 572.705 340.354, 557.786 350.281 C 531.990 367.445, 518.068 392.392, 518.017 421.540 C 517.972 447.598, 530.939 468.385, 554.454 479.948 C 568.582 486.895, 574.913 488.210, 596.805 488.744 C 608.694 489.033, 619.257 488.770, 624.305 488.057 C 635.019 486.544, 657.384 481.194, 659.306 479.683 C 660.288 478.911, 661.906 472.252, 663.967 460.500 C 665.703 450.600, 667.383 441.431, 667.702 440.125 C 668.212 438.027, 667.625 438.282, 662.686 442.306 C 649.309 453.201, 638.292 457.101, 618.994 457.772 C 608.530 458.135, 604.026 457.870, 598.994 456.595 C 585.002 453.048, 575.582 446.306, 569.972 435.821 C 567.005 430.274, 566.542 428.398, 566.195 420.500 C 565.320 400.617, 574.118 383.754, 591.393 372.200 C 617.029 355.054, 652.139 356.261, 672.071 374.975 C 674.990 377.714, 677.539 379.794, 677.737 379.596 C 677.988 379.345, 684.826 340.424, 684.987 338.332 C 685.028 337.804, 668.348 332.793, 662 331.426 C 652.999 329.489, 625.877 328.713, 614.810 330.076 M 774.520 330.115 C 759.110 332.359, 740.756 339.255, 729.399 347.069 C 709.831 360.533, 695.163 382.692, 690.461 405.894 C 687.960 418.236, 688.765 435.973, 692.276 445.881 C 699.920 467.457, 718.217 482.092, 744.208 487.420 C 754.869 489.605, 787.160 489.593, 800.074 487.398 C 818.611 484.247, 839.472 476.164, 840.473 471.745 C 841.576 466.871, 846 441.103, 846 439.552 C 846 438.239, 845.070 438.544, 841.428 441.049 C 828.880 449.683, 808.551 456.970, 791.124 459.082 C 764.813 462.271, 740.650 453.343, 734.929 438.318 C 733.172 433.704, 731.970 425.966, 732.613 423.406 L 733.213 421.016 793.356 420.758 L 853.500 420.500 855.864 412 C 857.808 405.012, 858.241 401.010, 858.298 389.500 C 858.360 377.019, 858.088 374.660, 855.792 367.756 C 847.251 342.075, 825.357 328.819, 792 329.135 C 785.675 329.195, 777.809 329.636, 774.520 330.115 M 890.600 344.716 C 888.797 360.694, 885.191 382.868, 873.643 449 C 870.137 469.075, 867.578 485.846, 867.954 486.270 C 868.331 486.693, 878.732 486.918, 891.068 486.770 L 913.498 486.500 921.785 439 C 931.153 385.302, 931.755 383.304, 941.323 374.256 C 951.823 364.326, 966.238 359.595, 979.096 361.860 C 988.301 363.482, 993.794 367.246, 997.485 374.463 C 1002.188 383.659, 1001.752 389.638, 992.675 440.517 C 988.454 464.177, 985 484.314, 985 485.267 C 985 486.861, 986.849 487, 1008 487 C 1020.650 487, 1031.002 486.663, 1031.003 486.250 C 1031.005 485.837, 1034.651 465.025, 1039.105 440 C 1047.755 391.398, 1049.218 377.886, 1047.034 366.743 C 1042.100 341.564, 1021.137 327.932, 989.500 329.328 C 968.923 330.236, 951.315 336.593, 939.326 347.443 L 933.414 352.794 913.957 341.281 C 903.256 334.949, 894.023 329.580, 893.441 329.350 C 892.764 329.083, 891.737 334.638, 890.600 344.716 M 229 357.028 C 213.837 360.181, 199.321 373.010, 192.539 389.250 L 190.973 393 230.609 393 L 270.245 393 269.799 384.250 C 269.093 370.368, 263.833 362.379, 252.766 358.382 C 247.507 356.482, 235.041 355.772, 229 357.028 M 772.919 357.833 C 764.195 360.111, 755.946 365.203, 749.500 372.291 C 744.750 377.514, 738 389.008, 738 391.873 C 738 392.690, 748.731 393, 777 393 L 816 393 816.134 389.250 C 816.816 370.221, 810.187 360.512, 794.201 357.123 C 786.962 355.589, 780.718 355.797, 772.919 357.833" stroke="none" fill="#245cac" fill-rule="evenodd"/></svg>